HIERARCHY
ROOT Hips
{
    OFFSET 0.0 0.0 0.0
    CHANNELS 6 Xposition Yposition Zposition Xrotation Yrotation Zrotation
    JOINT Spine
    {
        OFFSET 0.0 25.335010047670025 0.0
        CHANNELS 3 Xrotation Yrotation Zrotation
        JOINT LeftUpperArm
        {
            OFFSET 16.372229540129258 25.524455400237052 0.0
            CHANNELS 3 Xrotation Yrotation Zrotation
            JOINT LeftLowerArm
            {
                OFFSET 31.828304997414094 0.0 0.0
                CHANNELS 3 Xrotation Yrotation Zrotation
                End Site
                {
                OFFSET 6.934956540289116 0.0 0.0
                }
            }
        }
        JOINT RightUpperArm
        {
            OFFSET -16.372229540129258 25.524455400237052 0.0
            CHANNELS 3 Xrotation Yrotation Zrotation
            JOINT RightLowerArm
            {
                OFFSET -31.828304997414094 0.0 0.0
                CHANNELS 3 Xrotation Yrotation Zrotation
                End Site
                {
                OFFSET 6.934956540289116 0.0 0.0
                }
            }
        }
    }
    JOINT LeftUpperLeg
    {
        OFFSET 8.996378831507265 0.0 0.0
        CHANNELS 3 Xrotation Yrotation Zrotation
    }
    JOINT RightUpperLeg
    {
        OFFSET -8.996378831507265 0.0 0.0
        CHANNELS 3 Xrotation Yrotation Zrotation
    }
}
MOTION
Frames: 25
Frame Time: 0.03333333333333333
-0.13673777226311123 -0.19259780941782867 -0.08224393816044466 15.276411604376657 13.467451591623169 3.070926033800452 -0.0 -0.0 -0.0 150.66658953871416 9.662710495062484 -6.089132535820674 142.5721749716317 3.123500616065942 4.072367199234496 173.5350006637298 -3.1043542014870966 -157.55647623671518 82.63643522055546 21.5711472506779 -2.720219663480535 -34.91850056315994 78.63053500187472 76.73290287094025 -163.83314491593808 66.97516409581672 -61.87053441662345
-0.13983023739100225 -0.19012023597572159 -0.08198114798489492 15.172007497410961 13.52136078845099 2.9898859736854386 -0.0 -0.0 -0.0 144.14257201558127 9.186455013192754 -7.6622445047557575 150.50062949761738 2.5984767735303334 4.581545620109461 173.72369325280704 -3.2314527381322846 -157.40194739400224 82.56213714487075 21.817439514941235 -2.777739903986077 -36.64546403240124 81.55246332114841 72.07198678108922 -168.67649759405606 62.73071171420676 -66.46179717680006
-0.14233766838732873 -0.18652764938306254 -0.08233086902200494 15.095438272459957 13.649491642202705 2.8807659091908637 -0.0 -0.0 -0.0 139.54007856663898 8.516595857056208 -8.804289169217672 155.6804684456204 2.0181852624457344 4.4557973958892125 172.2249045419712 -2.910879649515231 -157.30726611715593 78.0692226486294 21.69808583403722 -4.466803884431935 -36.44319931243235 83.40973977756161 70.58062484970155 -170.72443522981857 60.913304968724475 -68.49796077330652
-0.14403050172340012 -0.18283023234101523 -0.08239443126233756 15.233516562060705 13.688884007842919 2.8343363275317626 -0.0 -0.0 -0.0 136.97604464899786 8.129875649467172 -9.509854538613553 157.70658682435962 1.797641433734736 4.375294573903332 170.37260275002976 -2.4030499023634877 -156.61314860073645 74.8290647072344 22.464502897346424 -5.915260195430377 -30.483243146647474 84.60936071811479 76.55476382918968 -171.57315955592958 60.84916548628962 -69.33963336307269
-0.146013622775167 -0.1800415941345572 -0.08244048999420506 15.114360659993585 13.743593786668669 2.722323105298963 -0.0 -0.0 -0.0 134.61871655531056 7.5700348768821515 -10.333768827613389 160.37757929521393 1.5213310849191337 4.258747718641239 169.9113664699643 -2.257734700542698 -156.27126896345732 73.09477497152571 22.77667986553313 -6.710613065843127 -18.838554485810143 85.26062848074626 87.58066453921528 -172.38906653161885 60.59390006798995 -70.40219804940077
-0.14728119357149427 -0.17772255011199045 -0.08401636320528963 15.060243019991082 13.71999372316054 2.6374307670758266 -0.0 -0.0 -0.0 132.15121821992093 7.129052158524526 -10.629646304385062 163.122708733304 1.350256242368406 4.4412292718521895 169.21226749347468 -2.064597318001076 -155.80368374804615 68.68444551731693 22.66375611354525 -8.550457664042698 -5.844126959849366 84.34718369007484 100.50750803104016 -172.63215791297213 60.8099654777259 -70.86305640037635
-0.14897776152422934 -0.17599640887333423 -0.08740711041989067 14.99666012839134 13.255654816244888 2.4645443739980437 -0.0 -0.0 -0.0 127.59473527179162 6.537292401487401 -10.882470820760767 167.89924440941815 1.0615773217207005 4.938944358140325 168.09340623647327 -1.9189363776376378 -155.4596747523406 65.18984902159134 22.72435275437945 -10.125028135371776 -0.486741020142691 82.9387445688858 106.19975801837764 -173.0559883575079 60.410586057953914 -71.4850283392874
-0.1510234281863567 -0.1749632169502817 -0.08706203879069466 15.13816049374926 13.137835883740946 2.437351349807108 -0.0 -0.0 -0.0 127.80177069748667 7.384070877230019 -10.361118529786326 165.87110926834427 1.2144150954946562 4.812779224940509 166.99736157218095 -1.518534853147776 -155.2755001433389 66.62243454862747 23.45133354509394 -9.761162771285164 2.8476280731515726 81.4389796711248 112.1771288298252 -173.97976580318107 61.30992496492519 -71.56535757452463
-0.15143487757540533 -0.17381083865145938 -0.08794144339965285 15.345205646727154 13.056434152338516 2.4309666859932593 -0.0 -0.0 -0.0 133.68055042038722 8.992685085353626 -8.949855457092744 160.15728755910806 1.711815989333616 4.732158257755912 166.4007963179755 -1.4523125465199458 -155.35036705411983 66.32457690457304 23.47038366315601 -9.905495390054211 3.473439165314595 81.27278565815216 112.90908473245946 -174.166672853732 61.57976123193063 -71.61528209914063
-0.15153023660257126 -0.1732878669606196 -0.08886483803697258 15.540677143641082 12.982466026897404 2.444221313065457 -0.0 -0.0 -0.0 137.0188646831447 9.688156277126279 -7.801236217503657 156.94703026569758 1.9824912458368587 4.647329808265216 165.82044669440924 -1.4166502916518249 -155.4407988369994 65.68415160374387 23.334255385447737 -10.147103946326057 2.7035850848451 81.02532814671632 112.29140145557083 -174.3393753090959 61.694609265098606 -71.62378428775666
-0.1511590897125555 -0.1726530082956834 -0.08981564834963822 15.801904565976404 12.932792557323362 2.481265885405548 -0.0 -0.0 -0.0 136.4492216543389 9.53096372582251 -7.734318602175897 157.28778765357544 1.8494863885538266 4.409201933186195 165.60213112332775 -1.4149173472501013 -155.45424185316918 66.36154777101815 23.65207559608922 -9.95919327905251 1.9306392080140669 80.43828835718678 111.73505340836508 -174.3449578119399 62.0934991401159 -71.43827461000824
-0.15041776233414286 -0.17244808109876658 -0.08998847276858175 15.6869822662614 12.907180390944017 2.438899872574692 -0.0 -0.0 -0.0 139.8087617644192 10.0234591139292 -6.743496243607609 154.4927683395204 1.9885821169959097 4.15963509090537 165.7386765865982 -1.6455253938888879 -155.4828818941918 66.3451369589159 23.661547694267572 -9.970490891057146 1.8089613449442112 79.9898685738015 111.02995175601144 -174.1218085364811 62.32322732538754 -71.35347932771737
-0.15075427834693128 -0.17313972303075215 -0.08841099078014315 15.115413793175383 12.838155062615018 2.2859617248932134 -0.0 -0.0 -0.0 147.97384512107146 10.830663922017703 -4.619486319433916 146.29490129243345 2.3184674476940907 3.4705260642166778 166.3352908700265 -1.8168789065604574 -155.72179758079548 67.65237549548071 23.777699661564466 -9.411299939255604 2.651395592403151 79.97810875656596 111.42967846904759 -173.5113158949818 62.46278683037169 -71.2778088436046
-0.15131074383476545 -0.173978917576615 -0.08660750859573957 14.540116217664046 12.850168185002044 2.1571665068379358 -0.0 -0.0 -0.0 151.54761190579012 11.337356087744212 -3.187488082798587 142.12432890282784 2.7588871917049387 3.541166505226138 166.06259339385392 -1.6250250002104996 -156.39858640958795 75.08239169348718 24.11375455119375 -6.211683804173388 3.3013163718349947 79.85802607342784 112.72967839652287 -173.0312239654835 63.57212289824468 -70.78628538822238
-0.15123044080961545 -0.1746043056247148 -0.0858851380236 14.31811528629061 12.837131583306522 2.1196423598462313 -0.0 -0.0 -0.0 153.2198996159082 11.387158042147375 -2.796158335521118 140.80522465089436 2.909738546038548 3.562225648323377 167.0194574142658 -1.8912347557349856 -156.97713103188013 76.99924875254654 23.88334197240258 -5.340405876706053 3.4598755474699745 79.65090064091284 112.5864852107187 -172.7291838814661 63.57434859859925 -70.7286589610241
-0.15122004933869335 -0.1748493018991203 -0.08600833163980187 14.280586242972525 12.801127199292866 2.1164708680416977 -0.0 -0.0 -0.0 152.93913047773407 11.347044545463778 -2.896025272839334 140.9384916207227 2.9610384830509933 3.642025297135097 168.0039264530047 -2.191293382610565 -157.46991688297342 78.8408104110715 23.87358181771519 -4.5646518455027945 3.3218214943788005 79.49732697157349 112.17092375115375 -172.23509278563478 64.12056151655398 -70.33062463185111
-0.1511699932183749 -0.17505021116580052 -0.08654442441765962 14.413955853895866 12.783603128565593 2.1600975475319486 -0.0 -0.0 -0.0 153.886173992143 11.4669228140451 -2.782139372404293 140.32895125395837 3.0344194218549894 3.652071820476646 168.50679319122517 -2.367687043509397 -157.9442242906161 81.4633139831785 23.611361316303434 -3.4405912583500813 3.454505260310478 79.56672935576665 112.36182247724024 -172.30345058524986 64.10614761083707 -70.27336765037352
-0.1511122608716838 -0.17486904825975805 -0.08695948752834197 14.497435989184641 12.765726572734405 2.188355054443311 -0.0 -0.0 -0.0 155.01717641054682 11.44611670420291 -2.5610623860875017 139.33179584895456 3.1284934544767142 3.634602313057551 168.8929632735584 -2.59325268143178 -158.50208640658468 85.41397274104649 23.22138711615189 -1.8114692236469836 3.8294217784791456 79.64947658130158 112.61847694611203 -172.3661601652263 64.08945865843215 -70.26903439458242
-0.15087997864310276 -0.17477789304277697 -0.08795255332499534 14.62251059472638 12.683805386810137 2.2275461045177902 -0.0 -0.0 -0.0 155.47385991282223 11.317043497835732 -2.2860242888461073 139.1576771902252 3.293027697478908 3.80163143714633 169.2731156604866 -2.8052950157625998 -158.83309790148954 87.82376200374318 22.936098175325547 -0.8484352485059666 3.888895487942119 79.90920729836614 112.44284920872288 -172.4393107846196 64.0852437019046 -70.2244763050895
-0.15032695651276803 -0.1745065250761171 -0.08926936819648501 14.855944762166379 12.639832052206286 2.2976243685239286 -0.0 -0.0 -0.0 154.43081814790511 10.971394849185247 -2.4128229741467417 140.33692885061714 3.130573337366229 3.7684210970979684 170.66199424330026 -3.3989726357001597 -159.031434952926 88.24771986613823 22.758571509752265 -0.6780474427958011 3.4155421800020895 80.08339153061392 111.25851676598981 -172.5469758543287 63.90956431862428 -70.21865540793739
-0.1501340898668294 -0.1743668916421305 -0.08996897743538657 15.054736856648592 12.618793360275285 2.351743237052112 -0.0 -0.0 -0.0 153.3541251674807 10.684589392135395 -2.669084549590463 141.38310414806958 2.9040593397701753 3.629234880261257 171.5343718602649 -3.7183926243798555 -159.29072048573744 91.20135059247114 22.466331533431102 0.4591421415553835 3.227894398999232 80.21532783517111 110.94807246706847 -172.672451599833 63.94389027131964 -70.15979067732303
-0.1499580595745687 -0.1743656561594463 -0.09070244083553283 15.247183741808325 12.59854449652695 2.4025819030345916 -0.0 -0.0 -0.0 152.8049227612257 10.592370313494436 -2.951868695889489 141.72895792945837 2.6087438291111997 3.301874773118244 172.01566980500462 -3.8357339104639174 -159.47211537272702 95.70706985709944 22.20380565140233 2.1628479092112776 3.590409077170454 80.54054549458269 111.42243141585632 -173.07793239449776 63.72494090166214 -70.30632318348177
-0.14987060082301285 -0.1744261103822895 -0.09112342224444432 15.360793428848403 12.582352832099279 2.438175555855273 -0.0 -0.0 -0.0 152.65854632470226 10.50791016359991 -3.245827885922733 141.3972935474864 2.39931769811155 3.0016548235208895 172.29067009571787 -3.903566979773015 -159.52147099861017 97.70306579665004 22.074265863425634 2.9099385885626936 3.9741519789024013 80.79358883054985 111.92997354015986 -173.882289796675 63.330735016487445 -70.6878140372391
-0.14979205179542182 -0.17428039443959065 -0.09122059568606182 15.473219228461645 12.548560172840338 2.468894915041793 -0.0 -0.0 -0.0 154.14221003908176 10.568617645569175 -3.1891984377658105 139.48027334233208 2.359062900281179 2.757272611413225 172.27756523961202 -3.904535780334338 -159.5409441814718 97.40301051881976 22.026153747652668 2.789696605324692 4.1099078501964765 80.95943956509386 112.19587192072989 -174.14383120668293 63.100235223941716 -70.77991870716107
-0.14967112729673557 -0.1743103894331833 -0.09107304313620376 15.600002473192117 12.458739883403938 2.4879125653056935 -0.0 -0.0 -0.0 157.5424635425579 10.857158672953688 -2.683940113486306 135.7434194604343 2.825635789814467 2.896285028652513 172.2939711638149 -3.937224844022752 -159.59122115385674 105.91092274297648 21.19341785833935 5.883872594679437 4.244810829003717 81.14056014966766 112.4398468388235 -174.2455253459045 63.09049654268473 -70.74606754211804
